<svg width="33" height="34" viewBox="0 0 33 34" fill="none" xmlns="http://www.w3.org/2000/svg">
<circle cx="16.5107" cy="17.2223" r="16.4394" fill="white"/>
<path d="M20.1159 8.91919H12.4999C10.0212 8.91919 8.00464 10.9357 8.00464 13.4144V21.0305C8.00464 23.5091 10.0212 25.5256 12.4999 25.5256H20.116C22.5946 25.5256 24.6111 23.5091 24.6111 21.0305V13.4144C24.6111 10.9357 22.5946 8.91919 20.1159 8.91919V8.91919ZM16.3079 21.7631C13.8041 21.7631 11.7672 19.7262 11.7672 17.2224C11.7672 14.7186 13.8041 12.6817 16.3079 12.6817C18.8117 12.6817 20.8486 14.7186 20.8486 17.2224C20.8486 19.7262 18.8117 21.7631 16.3079 21.7631ZM20.9571 13.7526C20.2172 13.7526 19.6154 13.1507 19.6154 12.4108C19.6154 11.6709 20.2172 11.069 20.9571 11.069C21.6971 11.069 22.299 11.6709 22.299 12.4108C22.299 13.1507 21.6971 13.7526 20.9571 13.7526Z" fill="#FFC844"/>
<path d="M16.3081 13.655C14.3413 13.655 12.741 15.2552 12.741 17.2222C12.741 19.189 14.3413 20.7893 16.3081 20.7893C18.2751 20.7893 19.8753 19.189 19.8753 17.2222C19.8753 15.2552 18.2751 13.655 16.3081 13.655Z" fill="#FFC844"/>
<path d="M20.9568 12.042C20.7538 12.042 20.5886 12.2072 20.5886 12.4102C20.5886 12.6131 20.7538 12.7784 20.9568 12.7784C21.1599 12.7784 21.3251 12.6133 21.3251 12.4102C21.3251 12.2071 21.1599 12.042 20.9568 12.042Z" fill="#FFC844"/>
</svg>
