<svg width="33" height="34" viewBox="0 0 33 34" fill="none" xmlns="http://www.w3.org/2000/svg">
<circle cx="16.4374" cy="17.2223" r="16.4394" fill="white"/>
<path d="M13.3219 23.1767C14.3773 23.7648 15.5895 24.0977 16.879 24.0977C20.9246 24.0977 24.2119 20.808 24.2119 16.7632C24.2119 12.7184 20.9246 9.42871 16.879 9.42871H16.8759C12.8304 9.42871 9.54297 12.7175 9.54297 16.7632C9.54297 18.15 9.93016 19.4517 10.6042 20.5601L10.2334 22.032L9.73041 24.029L11.7342 23.5535L13.3219 23.1767Z" fill="white" stroke="#FFC844" stroke-width="2.5"/>
<path d="M19.9062 19.7432L19.8546 19.7948C19.5972 20.0543 19.2523 20.2083 18.8873 20.2268H18.6326C17.2849 20.2268 16.2016 19.7238 15.0571 18.5825C13.8415 17.3669 13.3515 16.2224 13.4192 14.7521H13.4191C13.4376 14.3872 13.5917 14.0422 13.8512 13.7849L13.9028 13.7333C14.2292 13.4055 14.6905 13.2501 15.1487 13.3135C15.6068 13.3768 16.0087 13.6517 16.2339 14.0557L16.3049 14.1847H16.3048C16.3943 14.3478 16.4287 14.5356 16.4025 14.7199C16.3763 14.9041 16.2911 15.075 16.1597 15.2068L15.7277 15.6388C15.9771 16.1189 16.3039 16.5546 16.6949 16.9285C17.0688 17.3196 17.5045 17.6463 17.9846 17.8957L18.4134 17.4701C18.5483 17.3376 18.723 17.2532 18.9107 17.2299C19.0983 17.2066 19.2884 17.2456 19.4516 17.3411L19.5806 17.4121C19.9846 17.6373 20.2595 18.0391 20.3228 18.4973C20.3862 18.9555 20.2307 19.4168 19.903 19.7432L19.9062 19.7432Z" fill="#FFC844"/>
</svg>
